<?xml version="1.0" encoding="UTF-8" standalone="no"?>
<svg
   class="img-fluid"
   id="outputsvg"
   width="2353.75"
   height="2657.7781"
   viewBox="0 0 23537.5 26577.78"
   version="1.1"
   sodipodi:docname="stew.svg"
   inkscape:version="1.4 (86a8ad7, 2024-10-11)"
   inkscape:export-filename="stew.png"
   inkscape:export-xdpi="96"
   inkscape:export-ydpi="96"
   xml:space="preserve"
   xmlns:inkscape="http://www.inkscape.org/namespaces/inkscape"
   xmlns:sodipodi="http://sodipodi.sourceforge.net/DTD/sodipodi-0.dtd"
   xmlns="http://www.w3.org/2000/svg"
   xmlns:svg="http://www.w3.org/2000/svg"><defs
     id="defs5"><rect
       x="36.759083"
       y="2138.1533"
       width="2392.4036"
       height="854.64868"
       id="rect5" /></defs><sodipodi:namedview
     id="namedview5"
     pagecolor="#ffffff"
     bordercolor="#000000"
     borderopacity="0.25"
     inkscape:showpageshadow="2"
     inkscape:pageopacity="0.0"
     inkscape:pagecheckerboard="0"
     inkscape:deskcolor="#d1d1d1"
     inkscape:zoom="0.32644993"
     inkscape:cx="119.46702"
     inkscape:cy="1929.8518"
     inkscape:window-width="2832"
     inkscape:window-height="1621"
     inkscape:window-x="218"
     inkscape:window-y="342"
     inkscape:window-maximized="0"
     inkscape:current-layer="outputsvg" /><text
     xml:space="preserve"
     transform="matrix(44.390399,0,0,44.390399,-1066.4515,-77175.713)"
     id="text5"
     style="font-size:192px;white-space:pre;shape-inside:url(#rect5);display:inline;fill:#1e74b7;fill-opacity:1;stroke:none;stroke-width:12"><tspan
       x="36.759766"
       y="2312.8484"
       id="tspan4"><tspan
         style="font-family:'Noto Sans';-inkscape-font-specification:'Noto Sans'"
         id="tspan2">STEW</tspan></tspan></text><g
     id="g1"
     transform="matrix(33.42942,0,0,33.42942,2976.758,966.57057)"><g
       id="_x34_3_x2C__Cooking_Pot_x2C__Pot_x2C__Stew_x2C__Cook_x2C__Cooking_Pot"><g
         id="g11"><path
           style="fill:#546c94"
           d="M 108,256 91,281 H 41 c -16.57,0 -30,-13.43 -30,-30 0,-16.56 13.44,-30 30,-30 h 50 z"
           id="path1" /><path
           style="fill:#546c94"
           d="m 471,221 c 16.57,0 30,13.43 30,30 0,16.56 -13.44,30 -30,30 h -50 l -17,-30 17,-30 z"
           id="path2" /><path
           style="fill:#95c7ee"
           d="m 91,241 c 0,13.133 0,140.716 0,162 0,54.12 43.88,98 98,98 h 134 c 54.12,0 98,-43.88 98,-98 0,-14.345 0,-140.408 0,-162 L 260.667,214 Z"
           id="path3" /><circle
           style="fill:#e3effc"
           cx="256"
           cy="371"
           r="60"
           id="circle3" /><path
           style="fill:#e3effc"
           d="M 281.39,44.65 276.37,62.21 256,73.5 235.63,62.21 230.61,44.65 C 225.8,27.79 238.46,11 256,11 c 17.557,0 30.2,16.816 25.39,33.65 z"
           id="path4" /><path
           style="fill:#6aa8fb"
           d="M 393.54,131.07 C 392.7,131.02 260,156 260,156 L 118.46,131.07 c 36.416,-50.053 96.6,-76.203 157.91,-68.86 48.1,5.74 90.04,31.57 117.17,68.86 z"
           id="path5" /><path
           style="fill:#6aa8fb"
           d="M 421,241 H 91 c 0,-17.03 0,-59.216 0,-75 h 330 c 0,15.808 0,58.005 0,75 z"
           id="path6" /><path
           style="fill:#95c7ee"
           d="m 441,181 c -34.338,0 -354.042,0 -370,0 0,-27.583 22.381,-50 50,-50 288.433,0.021 270.34,-0.061 272.54,0.07 26.43,1.32 47.46,23.17 47.46,49.93 z"
           id="path7" /><g
           id="g10"><g
             id="g9"><path
               d="m 471,211 h -40 v -20 h 10 c 5.522,0 10,-4.478 10,-10 0,-30.406 -22.741,-55.584 -52.104,-59.464 -28.153,-36.752 -67.661,-59.6 -109.802,-67.459 l 1.907,-6.676 C 297.651,24.123 280.192,1 256,1 c -11.527,0 -22.119,5.278 -29.061,14.48 -6.942,9.202 -9.106,20.837 -5.94,31.92 l 1.899,6.646 C 178.403,62.327 139.7,86.896 113.114,121.534 83.746,125.41 61,150.59 61,181 c 0,5.522 4.478,10 10,10 h 10 v 20 H 41 c -22.056,0 -40,17.944 -40,40 0,22.056 17.944,40 40,40 h 40 v 112 c 0,59.552 48.448,108 108,108 h 134 c 59.552,0 108,-48.448 108,-108 V 291 h 40 c 22.056,0 40,-17.944 40,-40 0,-22.056 -17.944,-40 -40,-40 z M 240.229,41.906 c -1.427,-4.993 -0.451,-10.235 2.677,-14.382 6.567,-8.708 19.625,-8.702 26.188,0 3.128,4.146 4.104,9.389 2.677,14.382 l -2.735,9.574 c -8.664,-0.631 -17.379,-0.631 -26.073,-0.008 z M 256,71 c 44.047,0 86.13,18.394 116.148,50 H 139.852 C 169.87,89.394 211.953,71 256,71 Z m -135,70 c 287.059,0.018 270.185,-0.045 271.981,0.053 17.728,0.87 32.461,13.33 36.753,29.947 -20.5,0 -334.03,0 -347.469,0 4.494,-17.396 20.307,-30 38.735,-30 z m 290,50 c 0,12.152 0,28.103 0,40 H 101 c 0,-11.898 0,-27.854 0,-40 z M 41,271 c -11.028,0 -20,-8.972 -20,-20 0,-11.028 8.972,-20 20,-20 h 40 v 40 z m 370,132 c 0,48.523 -39.477,88 -88,88 H 189 c -48.523,0 -88,-39.477 -88,-88 V 281 251 h 310 c 0,14.672 0,134.756 0,152 z m 60,-132 h -40 v -40 h 40 c 11.028,0 20,8.972 20,20 0,11.028 -8.972,20 -20,20 z"
               id="path8" /><path
               d="m 256,301 c -38.598,0 -70,31.402 -70,70 0,38.598 31.402,70 70,70 38.598,0 70,-31.402 70,-70 0,-38.598 -31.402,-70 -70,-70 z m 0,120 c -27.57,0 -50,-22.43 -50,-50 0,-27.57 22.43,-50 50,-50 27.57,0 50,22.43 50,50 0,27.57 -22.43,50 -50,50 z"
               id="path9" /></g></g></g></g><g
       id="Layer_1" /></g></svg>
